<?xml version="1.0" encoding="utf-8"?>
<!DOCTYPE svg PUBLIC "-//W3C//DTD SVG 1.1//EN" "http://www.w3.org/Graphics/SVG/1.1/DTD/svg11.dtd">
<svg version="1.1" xmlns="http://www.w3.org/2000/svg" xmlns:xlink="http://www.w3.org/1999/xlink" x="0px" y="0px" width="960px"
   height="960px" viewBox="0 0 960 960" enable-background="new 0 0 1920 1080" xml:space="preserve">
<metadata>
Copyright (c) 2018 4me, Inc. All rights reserved.
</metadata>

<g id="402">
   <path id="1" style="fill:#0077c0" d="M595 960c65 0 98 -44 98 -94c0 -63 -56 -121 -129 -121c-61 0 -97 36 -96 96c0 50 43 119 127 119zM397 0c-49 0 -88 31 -51 169l57 244c12 40 12 55 0 55c-15 0 -80 -26 -119 -53l-25 42c123 106 265 167 327 167c50 0 57 -61 32 -156l-67 -257c-11 -46 -6 -61 6 -61 c15 0 65 19 115 57l29 -38c-121 -123 -252 -169 -304 -169z"
     transform="translate(0, 960) scale(1, -1)" />
</g>

</svg>
